<?xml version="1.0" encoding="UTF-8" standalone="no"?>
<svg
   xmlns:dc="http://purl.org/dc/elements/1.1/"
   xmlns:cc="http://creativecommons.org/ns#"
   xmlns:rdf="http://www.w3.org/1999/02/22-rdf-syntax-ns#"
   xmlns:svg="http://www.w3.org/2000/svg"
   xmlns="http://www.w3.org/2000/svg"
   xmlns:sodipodi="http://sodipodi.sourceforge.net/DTD/sodipodi-0.dtd"
   xmlns:inkscape="http://www.inkscape.org/namespaces/inkscape"
   viewBox="0 0 56.310047 71.84"
   version="1.1"
   id="svg62"
   sodipodi:docname="ptn-logo-icon.svg"
   width="56.310047"
   height="71.839996"
   inkscape:version="0.92.3 (2405546, 2018-03-11)">
  <metadata
     id="metadata66">
    <rdf:RDF>
      <cc:Work
         rdf:about="">
        <dc:format>image/svg+xml</dc:format>
        <dc:type
           rdf:resource="http://purl.org/dc/dcmitype/StillImage" />
        <dc:title>Princeton University logo</dc:title>
      </cc:Work>
    </rdf:RDF>
  </metadata>
  <sodipodi:namedview
     pagecolor="#ffffff"
     bordercolor="#666666"
     borderopacity="1"
     objecttolerance="10"
     gridtolerance="10"
     guidetolerance="10"
     inkscape:pageopacity="0"
     inkscape:pageshadow="2"
     inkscape:window-width="1920"
     inkscape:window-height="1027"
     id="namedview64"
     showgrid="false"
     inkscape:zoom="4.365019"
     inkscape:cx="-3.3628837"
     inkscape:cy="24.791164"
     inkscape:window-x="-8"
     inkscape:window-y="-8"
     inkscape:window-maximized="1"
     inkscape:current-layer="svg62" />
  <defs
     id="defs4">
    <style
       id="style2">.a{fill:#ed6d0b;}.b{fill:#000;}.c{fill:#fff;isolation:isolate;}</style>
  </defs>
  <title
     id="title6">Princeton University logo</title>
  <path
     class="a"
     d="m 14.968543,59.024 a 70.978,70.978 0 0 0 13.176,12.816 71.14,71.14 0 0 0 13.2,-12.782 l -13.21,-12.844 z"
     id="path8"
     inkscape:connector-curvature="0"
     style="fill:#ed6d0b" />
  <path
     class="a"
     d="m 8.8235431,49.838 19.3249999,-18.561 19.363,18.613 a 68.705,68.705 0 0 0 7.159,-18.661 c 0.066,-0.317 0.123,-0.63 0.189,-0.947 H 1.4525431 a 68.77,68.77 0 0 0 7.371,19.556 z"
     id="path10"
     inkscape:connector-curvature="0"
     style="fill:#ed6d0b" />
  <path
     class="a"
     d="m 8.8125431,49.838 a 69.873,69.873 0 0 0 6.1589999,9.186 l 13.165,-12.81 13.209,12.843 a 69.445,69.445 0 0 0 6.154,-9.167 l -19.363,-18.613 z"
     id="path12"
     inkscape:connector-curvature="0"
     style="fill:#ed6d0b" />
  <path
     class="b"
     d="m 28.137543,45.865 -13.138,12.786 A 69.872,69.872 0 0 1 9.1295431,49.883 l 19.0119999,-18.26 19.05,18.312 a 69.406,69.406 0 0 1 -5.866,8.75 z"
     id="path14"
     inkscape:connector-curvature="0"
     style="fill:#000000" />
  <path
     class="b"
     d="m 28.136543,31.97 18.737,18.012 a 69.178,69.178 0 0 1 -5.578,8.33 l -12.81,-12.457 -0.349,-0.339 -0.349,0.339 -12.767,12.423 A 69.614,69.614 0 0 1 9.4385431,49.93 L 28.138543,31.97 m 0,-0.693 -19.3259999,18.561 a 69.873,69.873 0 0 0 6.1589999,9.186 l 13.165,-12.81 13.209,12.843 a 69.445,69.445 0 0 0 6.154,-9.167 l -19.363,-18.613 z"
     id="path16"
     inkscape:connector-curvature="0"
     style="fill:#000000" />
  <path
     class="b"
     d="m 56.064543,10.489 a 24.6,24.6 0 0 1 -7.187,1.066 A 24.116,24.116 0 0 1 28.159543,0 24.13,24.13 0 0 1 7.4365431,11.555 24.7,24.7 0 0 1 0.25954307,10.494 67.638,67.638 0 0 0 1.4395431,30.294 H 54.846543 a 68,68 0 0 0 1.218,-19.805 z"
     id="path18"
     inkscape:connector-curvature="0"
     style="fill:#000000" />
  <path
     class="c"
     d="m 41.313543,18.658 v -2.269 h -1.388 v -1.6 l -1.454,-0.408 h -0.1 V 13.02 c 0,0 -0.5,0.6 -2.8,0.6 -2.179,0 -3.459,-0.706 -5.192,-0.706 a 2.364,2.364 0 0 0 -2.179,0.952 v 0.549 h -0.057 v -0.549 a 2.381,2.381 0 0 0 -2.179,-0.952 c -1.734,0 -3.013,0.711 -5.193,0.711 -2.3,0 -2.7,-0.6 -2.7,-0.6 v 1.431 h -0.095 l -1.578,0.332 v 1.6 h -1.399 v 2.269 h 1.393 v 3.673 h -1.393 v 2.27 h 1.393 v 2.823 a 33.885,33.885 0 0 0 4.5,0.365 c 2.554,0 4.027,-0.369 5.685,-0.4 V 28.1 a 3.848,3.848 0 0 0 1.559,0.332 4.25,4.25 0 0 0 1.616,-0.332 v -0.71 c 1.653,0.033 3.127,0.4 5.695,0.4 a 33.844,33.844 0 0 0 4.487,-0.365 V 24.6 h 1.388 v -2.27 h -1.397 v -3.672 z"
     id="path20"
     inkscape:connector-curvature="0"
     style="isolation:isolate;fill:#ffffff" />
  <path
     class="b"
     d="m 38.587543,14.23 0.007,-1.739 -0.422,0.445 c 0,0 -0.522,0.521 -2.627,0.521 l -2.846,-0.379 -2.345,-0.327 a 2.784,2.784 0 0 0 -2.208,0.843 2.8,2.8 0 0 0 -2.208,-0.843 l -2.343,0.332 -2.85,0.379 c -2.07,0 -2.5,-0.5 -2.506,-0.5 l -0.429,-0.526 -0.011,0.664 v 1.2 l -1.689,0.355 V 27.7 l 0.2,0.028 a 34.016,34.016 0 0 0 4.534,0.37 51.763,51.763 0 0 0 5.443,-0.374 v 0.592 l 0.133,0.071 a 4.1,4.1 0 0 0 1.668,0.355 4.459,4.459 0 0 0 1.717,-0.355 l 0.14,-0.066 v -0.6 a 51.806,51.806 0 0 0 5.457,0.374 34.05,34.05 0 0 0 4.528,-0.37 l 0.2,-0.028 V 14.665 Z m -10.2,-0.166 a 2.142,2.142 0 0 1 1.966,-0.829 l 2.24,0.317 2.956,0.389 a 5.883,5.883 0 0 0 2.565,-0.417 v 12.334 a 7.157,7.157 0 0 1 -2.565,0.379 l -2.85,-0.379 -2.345,-0.327 a 2.94,2.94 0 0 0 -1.966,0.621 z m -10.1,-0.516 a 5.525,5.525 0 0 0 2.459,0.4 l 2.954,-0.388 2.239,-0.322 a 2.156,2.156 0 0 1 1.966,0.829 v 12.09 a 2.957,2.957 0 0 0 -1.985,-0.625 l -2.345,0.332 -2.829,0.374 c -2.07,0 -2.5,-0.5 -2.506,-0.5 -0.006,0 0.037,-11.366 0.042,-12.191 z m 21.37,13.733 a 33.042,33.042 0 0 1 -4.247,0.332 53.519,53.519 0 0 1 -5.668,-0.4 l -0.272,-0.038 v 0.829 a 4.067,4.067 0 0 1 -1.374,0.251 3.815,3.815 0 0 1 -1.317,-0.246 v -0.834 l -0.273,0.038 a 53.514,53.514 0 0 1 -5.654,0.4 33.085,33.085 0 0 1 -4.254,-0.332 V 15.044 c 0.223,-0.042 0.883,-0.185 1.206,-0.251 v 11.084 c 0.118,0.256 0.625,0.843 2.942,0.843 l 2.933,-0.384 2.241,-0.322 a 2.183,2.183 0 0 1 1.987,0.829 l 0.069,-0.038 h 0.346 l 0.066,0.038 a 2.142,2.142 0 0 1 1.966,-0.829 l 2.24,0.318 2.956,0.388 c 2.349,0 2.935,-0.616 2.994,-0.687 l 0.045,-11.3 c 0.308,0.085 0.872,0.242 1.068,0.3 z"
     id="path22"
     inkscape:connector-curvature="0"
     style="fill:#000000" />
  <path
     class="b"
     d="m 21.717543,15.72 a 0.416,0.416 0 0 0 -0.37,0.242 l -0.777,1.729 a 0.148,0.148 0 0 1 -0.062,0.028 c -0.024,0 -0.052,-0.028 -0.071,-0.081 -0.019,-0.053 -0.114,-0.3 -0.317,-0.777 l -0.251,-0.561 c -0.09,-0.209 -0.161,-0.346 -0.185,-0.389 a 0.374,0.374 0 0 0 -0.327,-0.189 0.08,0.08 0 0 1 -0.014,-0.052 0.112,0.112 0 0 1 0.009,-0.052 h 0.128 c 0.147,0 0.27,0.009 0.379,0.009 0.128,0 0.341,-0.014 0.483,-0.014 h 0.085 c 0.014,0 0.019,0.033 0.019,0.048 a 0.127,0.127 0 0 1 -0.01,0.057 c -0.095,0.009 -0.308,0 -0.308,0.138 a 0.332,0.332 0 0 0 0.019,0.114 l 0.512,1.213 0.426,-1 a 0.628,0.628 0 0 0 0.057,-0.265 c 0,-0.114 -0.081,-0.166 -0.294,-0.189 a 0.178,0.178 0 0 1 -0.014,-0.048 0.232,0.232 0 0 1 0.014,-0.062 h 0.062 c 0.095,0 0.189,0.014 0.4,0.014 0.038,0 0.185,-0.009 0.256,-0.009 h 0.147 c 0.009,0.019 0.019,0.028 0.019,0.047 a 0.135,0.135 0 0 1 -0.015,0.049 z"
     id="path24"
     inkscape:connector-curvature="0"
     style="fill:#000000" />
  <path
     class="b"
     d="m 23.882543,17.657 c -0.621,0 -0.957,-0.014 -1.042,-0.014 -0.066,0 -0.218,0 -0.294,0 -0.076,0 -0.284,0.014 -0.5,0.014 h -0.123 a 0.085,0.085 0 0 1 -0.009,-0.047 0.258,0.258 0 0 1 0,-0.057 0.823,0.823 0 0 0 0.313,-0.066 0.594,0.594 0 0 0 0.066,-0.313 c 0,-0.095 0,-0.2 0,-0.308 0,-0.156 0,-0.346 0,-0.573 v -0.322 c 0,-0.223 -0.114,-0.223 -0.346,-0.251 a 0.239,0.239 0 0 1 -0.009,-0.052 c 0,-0.014 0,-0.048 0.019,-0.052 h 0.114 c 0.076,0 0.279,0 0.668,0 0.355,0 0.7,0 0.777,0 0.047,0 0.185,0 0.213,0 0.047,0 0.066,0 0.066,0.047 l 0.028,0.464 c -0.028,0.014 -0.033,0.019 -0.057,0.019 a 0.149,0.149 0 0 1 -0.047,0 0.919,0.919 0 0 0 -0.308,-0.355 0.322,0.322 0 0 0 -0.18,-0.052 c -0.028,0 -0.1,0 -0.275,0 -0.142,0 -0.213,0 -0.232,0 -0.019,0 -0.019,0 -0.028,0.081 0,0.047 -0.009,0.142 -0.009,0.412 V 16.5 h 0.071 a 0.993,0.993 0 0 0 0.232,-0.024 0.392,0.392 0 0 0 0.208,-0.147 0.921,0.921 0 0 0 0.048,-0.171 0.125,0.125 0 0 1 0.066,-0.014 0.1,0.1 0 0 1 0.052,0.014 c 0,0.085 -0.019,0.242 -0.019,0.441 0,0.1 0.009,0.318 0.009,0.408 a 0.074,0.074 0 0 1 -0.057,0.014 0.237,0.237 0 0 1 -0.057,0 c -0.019,-0.175 -0.047,-0.294 -0.194,-0.355 a 0.552,0.552 0 0 0 -0.227,-0.043 c -0.043,0 -0.095,0 -0.138,0.009 v 0.535 a 0.665,0.665 0 0 0 0.028,0.242 0.2,0.2 0 0 0 0.123,0.114 1,1 0 0 0 0.19,0.014 h 0.294 a 0.578,0.578 0 0 0 0.223,-0.033 1.123,1.123 0 0 0 0.327,-0.441 0.159,0.159 0 0 1 0.062,-0.01 0.165,0.165 0 0 1 0.062,0.014 v 0.54 c 0.001,0.045 -0.032,0.05 -0.108,0.05 z"
     id="path26"
     inkscape:connector-curvature="0"
     style="fill:#000000" />
  <path
     class="b"
     d="m 26.346543,16.255 c -0.014,0 -0.033,0 -0.057,0 a 1.286,1.286 0 0 0 -0.152,-0.3 0.485,0.485 0 0 0 -0.379,-0.2 c -0.047,0 -0.161,0 -0.2,0 v 0.905 c 0,0.142 0,0.308 0,0.62 0,0.237 0.109,0.237 0.355,0.27 a 0.113,0.113 0 0 1 0.019,0.057 0.108,0.108 0 0 1 -0.014,0.052 h -0.09 c -0.142,0 -0.426,-0.009 -0.516,-0.009 -0.062,0 -0.374,0.014 -0.521,0.014 a 0.075,0.075 0 0 1 -0.019,-0.057 0.123,0.123 0 0 1 0.014,-0.052 c 0.327,-0.024 0.36,-0.085 0.37,-0.189 0.009,-0.066 0.009,-0.336 0.009,-0.611 v -0.748 a 1.273,1.273 0 0 0 -0.019,-0.251 1.409,1.409 0 0 0 -0.318,0.024 0.81,0.81 0 0 0 -0.412,0.45 0.191,0.191 0 0 1 -0.052,0 0.055,0.055 0 0 1 -0.047,-0.019 v -0.526 c 0,-0.047 0,-0.062 0.061,-0.062 0.061,0 0.123,0 0.223,0 0.071,0 0.37,0 0.744,0 0.493,0 0.857,-0.014 0.952,-0.014 0.047,0 0.081,0 0.1,0.019 a 0.4,0.4 0 0 1 0,0.076 v 0.526 a 0.056,0.056 0 0 1 -0.051,0.025 z"
     id="path28"
     inkscape:connector-curvature="0"
     style="fill:#000000" />
  <path
     class="b"
     d="m 21.617543,19.462 c -0.019,0 -0.033,0 -0.062,0 a 1,1 0 0 0 -0.152,-0.3 0.476,0.476 0 0 0 -0.379,-0.2 c -0.047,0 -0.161,0 -0.2,0 v 0.9 c 0,0.142 0,0.308 0,0.621 0,0.237 0.114,0.237 0.36,0.27 a 0.1,0.1 0 0 1 0.014,0.057 0.1,0.1 0 0 1 -0.009,0.052 h -0.09 c -0.147,0 -0.431,-0.009 -0.516,-0.009 -0.062,0 -0.374,0.014 -0.526,0.014 a 0.1,0.1 0 0 1 -0.014,-0.057 0.252,0.252 0 0 1 0.009,-0.052 c 0.327,-0.024 0.36,-0.085 0.374,-0.189 0,-0.066 0,-0.336 0,-0.611 V 19.2 a 1.3,1.3 0 0 0 -0.014,-0.251 1.451,1.451 0 0 0 -0.322,0.024 0.805,0.805 0 0 0 -0.407,0.45 0.246,0.246 0 0 1 -0.057,0 0.061,0.061 0 0 1 -0.047,-0.019 v -0.526 c 0,-0.048 0.009,-0.062 0.062,-0.062 0.053,0 0.123,0 0.223,0 0.076,0 0.374,0 0.749,0 0.488,0 0.857,-0.014 0.947,-0.014 0.052,0 0.085,0 0.1,0.019 0.015,0.019 0,0.048 0,0.076 v 0.526 a 0.06,0.06 0 0 1 -0.043,0.039 z"
     id="path30"
     inkscape:connector-curvature="0"
     style="fill:#000000" />
  <path
     class="b"
     d="m 23.958543,20.865 c -0.616,0 -0.957,-0.014 -1.037,-0.014 -0.08,0 -0.218,0 -0.3,0 -0.082,0 -0.284,0.014 -0.5,0.014 h -0.123 a 0.093,0.093 0 0 1 -0.014,-0.048 0.13,0.13 0 0 1 0.015,-0.066 0.763,0.763 0 0 0 0.308,-0.066 c 0.038,-0.042 0.057,-0.128 0.066,-0.313 0,-0.095 0.009,-0.2 0.009,-0.308 0,-0.156 0,-0.346 0,-0.573 0,-0.161 0,-0.256 0,-0.322 0,-0.223 -0.109,-0.223 -0.341,-0.251 a 0.124,0.124 0 0 1 -0.014,-0.052 c 0,-0.014 0.009,-0.047 0.024,-0.052 h 0.109 c 0.081,0 0.28,0 0.668,0 0.36,0 0.7,0 0.782,0 h 0.208 c 0.052,0 0.071,0 0.071,0.048 l 0.024,0.464 a 0.092,0.092 0 0 1 -0.057,0.019 0.174,0.174 0 0 1 -0.047,0 0.851,0.851 0 0 0 -0.32,-0.345 0.309,0.309 0 0 0 -0.175,-0.052 c -0.028,0 -0.1,0 -0.279,0 -0.138,0 -0.213,0 -0.228,0 -0.015,0 -0.024,0 -0.033,0.081 0,0.047 0,0.142 0,0.412 V 19.7 h 0.066 a 0.948,0.948 0 0 0 0.232,-0.024 0.4,0.4 0 0 0 0.213,-0.147 0.894,0.894 0 0 0 0.043,-0.171 0.151,0.151 0 0 1 0.066,-0.014 0.1,0.1 0 0 1 0.057,0.014 c 0,0.085 -0.024,0.242 -0.024,0.441 0,0.1 0.014,0.317 0.014,0.407 a 0.079,0.079 0 0 1 -0.057,0.014 0.265,0.265 0 0 1 -0.062,0 c -0.019,-0.175 -0.042,-0.294 -0.194,-0.355 a 0.545,0.545 0 0 0 -0.223,-0.043 1.31,1.31 0 0 0 -0.138,0.009 v 0.535 a 0.84,0.84 0 0 0 0.024,0.242 c 0.019,0.033 0.066,0.1 0.123,0.114 a 1.075,1.075 0 0 0 0.189,0.014 h 0.3 a 0.557,0.557 0 0 0 0.218,-0.033 1.087,1.087 0 0 0 0.332,-0.441 0.151,0.151 0 0 1 0.062,-0.009 0.142,0.142 0 0 1 0.057,0.014 v 0.54 c -0.005,0.053 -0.038,0.058 -0.114,0.058 z"
     id="path32"
     inkscape:connector-curvature="0"
     style="fill:#000000" />
  <path
     class="b"
     d="m 25.399543,20.912 a 1.158,1.158 0 0 1 -0.474,-0.123 0.225,0.225 0 0 0 -0.076,-0.019 0.425,0.425 0 0 0 -0.152,0.081 0.13,0.13 0 0 1 -0.118,-0.062 c 0,-0.043 0.038,-0.171 0.038,-0.251 0,-0.047 -0.014,-0.279 -0.019,-0.332 a 0.11,0.11 0 0 1 0.09,-0.043 h 0.033 a 4.29,4.29 0 0 0 0.189,0.4 0.636,0.636 0 0 0 0.455,0.213 0.442,0.442 0 0 0 0.332,-0.1 0.287,0.287 0 0 0 0.114,-0.246 0.263,0.263 0 0 0 -0.057,-0.185 0.494,0.494 0 0 0 -0.213,-0.152 c -0.09,-0.043 -0.408,-0.123 -0.521,-0.185 a 0.823,0.823 0 0 1 -0.284,-0.2 0.626,0.626 0 0 1 -0.118,-0.374 0.584,0.584 0 0 1 0.63,-0.573 0.756,0.756 0 0 1 0.488,0.142 1.4,1.4 0 0 1 0.119,-0.119 0.11,0.11 0 0 1 0.109,0.057 2.237,2.237 0 0 0 -0.033,0.279 c 0,0.052 0.033,0.27 0.033,0.3 a 0.2,0.2 0 0 1 -0.081,0.028 0.14,0.14 0 0 1 -0.038,-0.009 c -0.057,-0.1 -0.109,-0.265 -0.171,-0.355 a 0.462,0.462 0 0 0 -0.408,-0.175 0.336,0.336 0 0 0 -0.37,0.3 c 0,0.171 0.138,0.251 0.251,0.3 0.085,0.033 0.189,0.071 0.308,0.109 a 2.793,2.793 0 0 1 0.327,0.123 0.561,0.561 0 0 1 0.336,0.54 0.663,0.663 0 0 1 -0.719,0.631 z"
     id="path34"
     inkscape:connector-curvature="0"
     style="fill:#000000" />
  <path
     class="b"
     d="m 22.442543,24.077 c -0.62,0 -0.957,-0.014 -1.042,-0.014 -0.066,0 -0.218,0 -0.294,0 -0.076,0 -0.284,0.014 -0.5,0.014 h -0.123 a 0.086,0.086 0 0 1 -0.009,-0.048 0.244,0.244 0 0 1 0,-0.057 0.83,0.83 0 0 0 0.313,-0.066 0.6,0.6 0 0 0 0.066,-0.313 c 0,-0.095 0,-0.2 0,-0.308 0,-0.156 0,-0.346 0,-0.573 V 22.39 c 0,-0.223 -0.114,-0.223 -0.346,-0.251 a 0.252,0.252 0 0 1 -0.009,-0.052 c 0,-0.014 0,-0.048 0.019,-0.052 h 0.114 c 0.076,0 0.28,0 0.668,0 0.355,0 0.7,0 0.777,0 0.048,0 0.185,0 0.213,0 0.048,0 0.066,0 0.066,0.048 l 0.028,0.464 c -0.028,0.014 -0.033,0.019 -0.057,0.019 a 0.143,0.143 0 0 1 -0.047,0 0.92,0.92 0 0 0 -0.308,-0.355 0.323,0.323 0 0 0 -0.18,-0.052 c -0.028,0 -0.1,0 -0.275,0 -0.142,0 -0.213,0 -0.232,0 -0.019,0 -0.019,0 -0.029,0.081 0,0.047 -0.009,0.142 -0.009,0.412 v 0.265 h 0.071 a 0.993,0.993 0 0 0 0.232,-0.024 0.394,0.394 0 0 0 0.209,-0.147 0.9,0.9 0 0 0 0.047,-0.171 0.126,0.126 0 0 1 0.066,-0.014 0.1,0.1 0 0 1 0.052,0.014 c 0,0.085 -0.019,0.242 -0.019,0.441 0,0.1 0.009,0.317 0.009,0.408 a 0.074,0.074 0 0 1 -0.057,0.014 0.238,0.238 0 0 1 -0.057,0 c -0.019,-0.175 -0.047,-0.294 -0.194,-0.355 a 0.553,0.553 0 0 0 -0.228,-0.043 1.305,1.305 0 0 0 -0.137,0.009 v 0.535 a 0.665,0.665 0 0 0 0.028,0.242 0.2,0.2 0 0 0 0.123,0.114 1.028,1.028 0 0 0 0.189,0.014 h 0.294 a 0.584,0.584 0 0 0 0.223,-0.033 1.127,1.127 0 0 0 0.327,-0.441 0.165,0.165 0 0 1 0.123,0 v 0.54 c 0.004,0.052 -0.029,0.057 -0.105,0.057 z"
     id="path36"
     inkscape:connector-curvature="0"
     style="fill:#000000" />
  <path
     class="b"
     d="m 25.427543,22.13 c -0.208,0.01 -0.389,0.123 -0.389,0.455 v 1.052 c 0,0.043 0.019,0.341 0.019,0.455 a 0.217,0.217 0 0 1 -0.085,0.033 0.139,0.139 0 0 1 -0.052,-0.033 l -1.445,-1.554 0.014,0.318 v 0.573 c 0,0.043 0.009,0.152 0.019,0.232 a 0.26,0.26 0 0 0 0.1,0.218 0.529,0.529 0 0 0 0.275,0.09 0.091,0.091 0 0 1 0.014,0.047 0.117,0.117 0 0 1 -0.019,0.052 h -0.156 c -0.133,0 -0.237,0 -0.374,0 -0.09,0 -0.218,0.009 -0.308,0.009 h -0.066 a 0.181,0.181 0 0 1 0,-0.047 0.133,0.133 0 0 1 0.009,-0.052 0.5,0.5 0 0 0 0.327,-0.142 0.682,0.682 0 0 0 0.033,-0.246 v -0.74 c 0,-0.118 0,-0.18 -0.009,-0.294 a 0.358,0.358 0 0 0 -0.071,-0.223 0.739,0.739 0 0 0 -0.1,-0.109 1.177,1.177 0 0 0 -0.232,-0.1 0.157,0.157 0 0 1 -0.014,-0.047 0.108,0.108 0 0 1 0.014,-0.052 h 0.052 c 0.043,0 0.265,0.009 0.436,0.009 h 0.1 a 0.2,0.2 0 0 1 0.062,0.043 l 1.071,1.17 c 0.081,0.09 0.185,0.208 0.242,0.284 v -0.843 c 0,-0.114 0,-0.194 -0.009,-0.237 a 0.563,0.563 0 0 0 -0.062,-0.218 c -0.033,-0.052 -0.232,-0.081 -0.336,-0.1 a 0.139,0.139 0 0 1 -0.009,-0.061 0.16,0.16 0 0 1 0,-0.043 h 0.062 c 0.1,0 0.261,0.014 0.36,0.014 0.246,0 0.322,-0.009 0.445,-0.009 h 0.081 a 0.112,0.112 0 0 1 0.009,0.052 0.093,0.093 0 0 1 -0.008,0.044 z"
     id="path38"
     inkscape:connector-curvature="0"
     style="fill:#000000" />
  <path
     class="b"
     d="m 32.178543,15.71 c -0.2,0.009 -0.389,0.123 -0.389,0.455 v 1.052 c 0,0.042 0.014,0.341 0.014,0.455 a 0.2,0.2 0 0 1 -0.081,0.033 c -0.014,0 -0.028,-0.014 -0.057,-0.033 l -1.445,-1.554 0.019,0.318 v 0.573 c 0,0.043 0.009,0.152 0.014,0.232 a 0.288,0.288 0 0 0 0.1,0.218 0.556,0.556 0 0 0 0.275,0.09 0.091,0.091 0 0 1 0.014,0.047 0.173,0.173 0 0 1 -0.014,0.052 h -0.161 c -0.128,0 -0.232,0 -0.374,0 -0.09,0 -0.213,0.009 -0.3,0.009 h -0.066 a 0.2,0.2 0 0 1 -0.009,-0.047 0.1,0.1 0 0 1 0.014,-0.052 0.5,0.5 0 0 0 0.322,-0.142 0.589,0.589 0 0 0 0.033,-0.246 v -0.74 c 0,-0.118 0,-0.18 0,-0.294 a 0.392,0.392 0 0 0 -0.071,-0.223 0.918,0.918 0 0 0 -0.1,-0.109 1.069,1.069 0 0 0 -0.232,-0.1 0.376,0.376 0 0 1 -0.009,-0.047 0.2,0.2 0 0 1 0.009,-0.052 h 0.057 c 0.038,0 0.261,0.009 0.431,0.009 h 0.1 a 0.31,0.31 0 0 1 0.066,0.043 l 1.071,1.17 c 0.081,0.09 0.185,0.208 0.242,0.284 v -0.843 a 2.026,2.026 0 0 0 -0.014,-0.237 0.493,0.493 0 0 0 -0.062,-0.218 c -0.033,-0.052 -0.232,-0.081 -0.332,-0.1 a 0.146,0.146 0 0 1 -0.014,-0.062 0.087,0.087 0 0 1 0.009,-0.043 h 0.061 c 0.1,0 0.261,0.014 0.36,0.014 0.242,0 0.322,-0.01 0.445,-0.01 h 0.076 a 0.126,0.126 0 0 1 0.014,0.052 0.107,0.107 0 0 1 -0.016,0.046 z"
     id="path40"
     inkscape:connector-curvature="0"
     style="fill:#000000" />
  <path
     class="b"
     d="m 34.305543,17.4 a 1.018,1.018 0 0 1 -1.445,0.014 1.134,1.134 0 0 1 0,-1.554 1.019,1.019 0 0 1 0.72,-0.308 1.1,1.1 0 0 1 0.54,0.152 1.073,1.073 0 0 1 0.5,0.91 1.135,1.135 0 0 1 -0.315,0.786 z m -0.332,-1.5 a 0.478,0.478 0 0 0 -0.407,-0.213 0.437,0.437 0 0 0 -0.379,0.213 1.183,1.183 0 0 0 -0.189,0.725 1.231,1.231 0 0 0 0.18,0.715 0.453,0.453 0 0 0 0.4,0.227 0.475,0.475 0 0 0 0.445,-0.279 1.328,1.328 0 0 0 0.133,-0.659 1.193,1.193 0 0 0 -0.183,-0.729 z"
     id="path42"
     inkscape:connector-curvature="0"
     style="fill:#000000" />
  <path
     class="b"
     d="m 37.214543,15.72 a 0.414,0.414 0 0 0 -0.365,0.242 l -0.777,1.729 a 0.149,0.149 0 0 1 -0.062,0.028 c -0.024,0 -0.057,-0.028 -0.071,-0.081 -0.014,-0.053 -0.114,-0.3 -0.322,-0.777 l -0.246,-0.564 c -0.09,-0.209 -0.161,-0.346 -0.185,-0.389 a 0.379,0.379 0 0 0 -0.327,-0.189 0.065,0.065 0 0 1 -0.019,-0.052 0.079,0.079 0 0 1 0.014,-0.052 h 0.128 c 0.142,0 0.265,0.009 0.374,0.009 0.128,0 0.341,-0.014 0.488,-0.014 h 0.081 c 0.019,0 0.024,0.033 0.024,0.048 a 0.13,0.13 0 0 1 -0.009,0.057 c -0.1,0.009 -0.308,0 -0.308,0.138 a 0.249,0.249 0 0 0 0.019,0.114 l 0.507,1.213 0.431,-1 a 0.685,0.685 0 0 0 0.052,-0.265 c 0,-0.114 -0.081,-0.166 -0.294,-0.189 a 0.174,0.174 0 0 1 -0.009,-0.048 0.247,0.247 0 0 1 0.009,-0.062 h 0.062 c 0.095,0 0.19,0.014 0.408,0.014 0.033,0 0.185,-0.009 0.256,-0.009 h 0.147 a 0.091,0.091 0 0 1 0,0.1 z"
     id="path44"
     inkscape:connector-curvature="0"
     style="fill:#000000" />
  <path
     class="b"
     d="m 31.510543,19.462 c -0.019,0 -0.033,0 -0.062,0 a 1,1 0 0 0 -0.152,-0.3 0.475,0.475 0 0 0 -0.379,-0.2 c -0.048,0 -0.161,0 -0.2,0 v 0.9 c 0,0.142 0,0.308 0,0.621 0,0.237 0.114,0.237 0.36,0.27 a 0.1,0.1 0 0 1 0.014,0.057 0.1,0.1 0 0 1 -0.009,0.052 h -0.09 c -0.147,0 -0.431,-0.009 -0.516,-0.009 -0.062,0 -0.374,0.014 -0.526,0.014 a 0.1,0.1 0 0 1 -0.014,-0.057 0.236,0.236 0 0 1 0.009,-0.052 c 0.327,-0.024 0.36,-0.085 0.374,-0.189 0,-0.066 0,-0.336 0,-0.611 V 19.2 a 1.317,1.317 0 0 0 -0.014,-0.251 1.453,1.453 0 0 0 -0.322,0.024 0.805,0.805 0 0 0 -0.407,0.45 0.245,0.245 0 0 1 -0.057,0 0.061,0.061 0 0 1 -0.047,-0.019 v -0.526 c 0,-0.048 0.009,-0.062 0.062,-0.062 0.053,0 0.123,0 0.223,0 0.076,0 0.374,0 0.749,0 0.488,0 0.857,-0.014 0.947,-0.014 0.052,0 0.085,0 0.1,0.019 0.015,0.019 0,0.048 0,0.076 v 0.526 a 0.06,0.06 0 0 1 -0.043,0.039 z"
     id="path46"
     inkscape:connector-curvature="0"
     style="fill:#000000" />
  <path
     class="b"
     d="m 33.964543,20.865 h -0.165 c -0.1,0 -0.223,-0.014 -0.346,-0.014 -0.194,0 -0.441,0.014 -0.535,0.014 a 0.077,0.077 0 0 1 -0.014,-0.052 0.165,0.165 0 0 1 0.009,-0.048 c 0.2,-0.009 0.279,-0.042 0.279,-0.123 a 0.7,0.7 0 0 0 -0.062,-0.265 c -0.062,-0.152 -0.095,-0.218 -0.109,-0.256 -0.009,-0.014 -0.014,-0.024 -0.057,-0.024 h -0.645 a 1.414,1.414 0 0 0 -0.152,0.393 0.451,0.451 0 0 0 -0.014,0.118 c 0,0.066 0.062,0.142 0.289,0.147 a 0.1,0.1 0 0 1 0.014,0.057 0.174,0.174 0 0 1 0,0.047 h -0.057 c -0.152,0 -0.194,-0.009 -0.355,-0.009 -0.1,0 -0.355,0.009 -0.441,0.009 a 0.135,0.135 0 0 1 -0.009,-0.043 0.122,0.122 0 0 1 0.009,-0.052 0.441,0.441 0 0 0 0.294,-0.152 3.254,3.254 0 0 0 0.261,-0.53 c 0.114,-0.275 0.251,-0.621 0.313,-0.763 0.085,-0.18 0.114,-0.237 0.142,-0.3 0.043,-0.09 0.09,-0.18 0.109,-0.213 a 0.126,0.126 0 0 1 0.081,-0.038 0.117,0.117 0 0 1 0.09,0.043 0.579,0.579 0 0 1 0.047,0.1 c 0.119,0.284 0.213,0.535 0.36,0.886 0.076,0.175 0.114,0.289 0.194,0.474 0.057,0.114 0.09,0.2 0.147,0.308 0.076,0.156 0.2,0.156 0.322,0.189 0,0.014 0.019,0.028 0.019,0.047 0,0.019 -0.009,0.031 -0.018,0.05 z m -1.294,-1.625 v 0 c -0.043,0.081 -0.119,0.256 -0.147,0.332 -0.109,0.265 -0.147,0.355 -0.166,0.393 h 0.611 c -0.051,-0.124 -0.208,-0.498 -0.298,-0.725 z"
     id="path48"
     inkscape:connector-curvature="0"
     style="fill:#000000" />
  <path
     class="b"
     d="m 37.128543,20.865 -0.829,-0.009 h -0.227 a 0.146,0.146 0 0 1 -0.014,-0.052 0.065,0.065 0 0 1 0.019,-0.052 1.064,1.064 0 0 0 0.2,-0.019 c 0.085,-0.038 0.118,-0.123 0.118,-0.246 v -1.475 0 l -0.436,0.957 c -0.047,0.1 -0.1,0.218 -0.152,0.332 a 4.29,4.29 0 0 0 -0.18,0.464 0.061,0.061 0 0 1 -0.066,0.038 c -0.028,0 -0.047,-0.009 -0.062,-0.057 -0.057,-0.123 -0.095,-0.2 -0.114,-0.256 l -0.682,-1.5 h -0.014 v 0.384 l 0.014,0.957 c 0,0.294 0.152,0.431 0.384,0.431 a 0.162,0.162 0 0 1 0.019,0.047 0.123,0.123 0 0 1 -0.014,0.052 c -0.014,0 -0.062,0 -0.1,0 -0.038,0 -0.18,-0.014 -0.4,-0.014 -0.062,0 -0.189,0 -0.289,0 h -0.137 a 0.2,0.2 0 0 1 -0.01,-0.052 0.236,0.236 0 0 1 0.01,-0.043 1.065,1.065 0 0 0 0.3,-0.1 c 0.043,-0.043 0.081,-0.128 0.081,-0.332 v -1.047 c 0,-0.166 -0.024,-0.232 -0.1,-0.289 a 1.017,1.017 0 0 0 -0.27,-0.052 0.143,0.143 0 0 1 -0.014,-0.057 0.165,0.165 0 0 1 0.014,-0.057 c 0.081,0 0.223,0.009 0.365,0.009 h 0.5 a 0.123,0.123 0 0 1 0.043,0.052 l 0.611,1.383 0.109,-0.275 c 0.095,-0.223 0.232,-0.559 0.426,-0.919 0.043,-0.081 0.095,-0.185 0.123,-0.237 l 0.777,-0.014 a 0.117,0.117 0 0 1 0.019,0.052 0.108,0.108 0 0 1 -0.014,0.052 c -0.085,0.014 -0.232,0.014 -0.3,0.133 -0.024,0.038 -0.038,0.076 -0.038,0.242 v 0.99 c 0,0.379 0.095,0.417 0.138,0.445 a 0.736,0.736 0 0 0 0.208,0.028 0.108,0.108 0 0 1 0.014,0.052 c -0.015,0.03 -0.025,0.035 -0.03,0.054 z"
     id="path50"
     inkscape:connector-curvature="0"
     style="fill:#000000" />
  <path
     class="b"
     d="m 31.462543,22.675 c -0.019,0 -0.033,0 -0.062,0 a 1,1 0 0 0 -0.152,-0.3 0.476,0.476 0 0 0 -0.379,-0.2 c -0.047,0 -0.161,0 -0.2,0 v 0.905 c 0,0.142 0,0.308 0,0.62 0,0.237 0.114,0.237 0.36,0.27 a 0.1,0.1 0 0 1 0.014,0.057 0.1,0.1 0 0 1 -0.009,0.052 h -0.09 c -0.147,0 -0.431,-0.009 -0.516,-0.009 -0.062,0 -0.374,0.014 -0.526,0.014 a 0.1,0.1 0 0 1 -0.014,-0.057 0.252,0.252 0 0 1 0.009,-0.052 c 0.327,-0.024 0.36,-0.085 0.374,-0.189 0,-0.066 0,-0.336 0,-0.611 v -0.749 a 1.3,1.3 0 0 0 -0.014,-0.251 1.451,1.451 0 0 0 -0.322,0.024 0.807,0.807 0 0 0 -0.408,0.45 0.243,0.243 0 0 1 -0.057,0 0.061,0.061 0 0 1 -0.047,-0.019 V 22.1 c 0,-0.048 0.009,-0.062 0.062,-0.062 0.053,0 0.123,0 0.223,0 0.076,0 0.374,0 0.749,0 0.488,0 0.857,-0.014 0.947,-0.014 0.052,0 0.085,0 0.1,0.019 0.015,0.019 0,0.048 0,0.076 v 0.526 a 0.061,0.061 0 0 1 -0.042,0.03 z"
     id="path52"
     inkscape:connector-curvature="0"
     style="fill:#000000" />
  <path
     class="b"
     d="m 34.006543,22.139 a 0.414,0.414 0 0 0 -0.365,0.242 l -0.777,1.729 a 0.148,0.148 0 0 1 -0.062,0.028 c -0.024,0 -0.057,-0.028 -0.071,-0.081 -0.014,-0.053 -0.114,-0.3 -0.322,-0.777 l -0.246,-0.564 c -0.09,-0.208 -0.161,-0.346 -0.185,-0.388 a 0.38,0.38 0 0 0 -0.327,-0.189 0.066,0.066 0 0 1 -0.019,-0.052 0.08,0.08 0 0 1 0.014,-0.052 h 0.128 c 0.142,0 0.265,0.009 0.374,0.009 0.128,0 0.341,-0.014 0.488,-0.014 h 0.081 c 0.019,0 0.024,0.033 0.024,0.048 a 0.13,0.13 0 0 1 -0.009,0.057 c -0.1,0.009 -0.308,0 -0.308,0.137 a 0.25,0.25 0 0 0 0.019,0.114 l 0.507,1.213 0.431,-1 a 0.687,0.687 0 0 0 0.052,-0.265 c 0,-0.114 -0.081,-0.166 -0.294,-0.189 a 0.165,0.165 0 0 1 -0.009,-0.048 0.236,0.236 0 0 1 0.009,-0.062 h 0.06 c 0.095,0 0.189,0.014 0.407,0.014 0.033,0 0.185,-0.009 0.256,-0.009 h 0.147 a 0.091,0.091 0 0 1 0,0.1 z"
     id="path54"
     inkscape:connector-curvature="0"
     style="fill:#000000" />
  <path
     class="b"
     d="m 37.171543,24.077 -0.824,-0.009 h -0.232 a 0.121,0.121 0 0 1 -0.009,-0.052 0.063,0.063 0 0 1 0.014,-0.052 1.09,1.09 0 0 0 0.208,-0.019 c 0.081,-0.038 0.114,-0.123 0.114,-0.246 V 22.5 c 0,0 0,-0.218 0,-0.279 h -0.009 l -0.431,0.957 c -0.052,0.1 -0.1,0.218 -0.156,0.332 -0.095,0.223 -0.152,0.374 -0.18,0.464 -0.009,0.038 -0.042,0.038 -0.066,0.038 -0.024,0 -0.043,-0.009 -0.062,-0.057 -0.052,-0.123 -0.09,-0.2 -0.109,-0.256 l -0.687,-1.5 h -0.014 v 0.384 l 0.014,0.957 c 0,0.294 0.152,0.431 0.388,0.431 a 0.127,0.127 0 0 1 0.014,0.047 0.111,0.111 0 0 1 -0.009,0.052 c -0.019,0 -0.062,0 -0.109,0 -0.028,0 -0.175,-0.014 -0.393,-0.014 -0.066,0 -0.194,0 -0.289,0 h -0.137 a 0.108,0.108 0 0 1 -0.014,-0.052 0.11,0.11 0 0 1 0.014,-0.043 1.108,1.108 0 0 0 0.3,-0.1 0.488,0.488 0 0 0 0.076,-0.332 v -0.483 -0.569 c 0,-0.166 -0.019,-0.232 -0.1,-0.289 a 1.028,1.028 0 0 0 -0.265,-0.052 0.1,0.1 0 0 1 -0.019,-0.057 0.115,0.115 0 0 1 0.019,-0.057 c 0.076,0 0.223,0.009 0.36,0.009 h 0.5 a 0.115,0.115 0 0 1 0.038,0.052 l 0.611,1.383 0.114,-0.275 a 9.222,9.222 0 0 1 0.426,-0.919 c 0.038,-0.081 0.095,-0.185 0.123,-0.237 l 0.772,-0.014 c 0.009,0.019 0.024,0.033 0.024,0.052 a 0.117,0.117 0 0 1 -0.019,0.052 c -0.081,0.014 -0.227,0.014 -0.3,0.133 -0.024,0.038 -0.043,0.076 -0.043,0.242 v 0.99 c 0,0.379 0.095,0.417 0.142,0.445 a 0.666,0.666 0 0 0 0.2,0.028 0.08,0.08 0 0 1 0.019,0.052 c 0.005,0.038 -0.004,0.043 -0.014,0.062 z"
     id="path56"
     inkscape:connector-curvature="0"
     style="fill:#000000" />
</svg>
